<svg xmlns="http://www.w3.org/2000/svg" width="36" height="36" viewBox="0 0 24 24" fill="none" stroke="#333" stroke-width="1.6" stroke-linecap="round" stroke-linejoin="round">
  <path d="M22.54 6.42a2.78 2.78 0 0 0-1.95-2C18.88 4 12 4 12 4s-6.88 0-8.59.42a2.78 2.78 0 0 0-1.95 2A29 29 0 0 0 1 12a29 29 0 0 0 .46 5.58 2.78 2.78 0 0 0 1.95 2C5.12 20 12 20 12 20s6.88 0 8.59-.42a2.78 2.78 0 0 0 1.95-2A29 29 0 0 0 23 12a29 29 0 0 0-.46-5.58z"/>
  <polygon points="9.75 15.02 15.5 12 9.75 8.98 9.75 15.02"/>
</svg>
